<svg xmlns="http://www.w3.org/2000/svg" xmlns:xlink="http://www.w3.org/1999/xlink" width="2000" zoomAndPan="magnify" viewBox="0 0 1500 1499.999933" height="2000" preserveAspectRatio="xMidYMid meet" version="1.0"><defs><g/><clipPath id="f25781f1dc"><path d="M 15.585938 14.765625 L 326.054688 14.765625 L 326.054688 325.234375 L 15.585938 325.234375 Z M 15.585938 14.765625 " clip-rule="nonzero"/></clipPath><clipPath id="c74fcea369"><path d="M 170.820312 14.765625 C 85.085938 14.765625 15.585938 84.265625 15.585938 170 C 15.585938 255.734375 85.085938 325.234375 170.820312 325.234375 C 256.554688 325.234375 326.054688 255.734375 326.054688 170 C 326.054688 84.265625 256.554688 14.765625 170.820312 14.765625 Z M 170.820312 14.765625 " clip-rule="nonzero"/></clipPath><clipPath id="9bae4328ae"><path d="M 0.585938 0.765625 L 311.054688 0.765625 L 311.054688 311.234375 L 0.585938 311.234375 Z M 0.585938 0.765625 " clip-rule="nonzero"/></clipPath><clipPath id="f3f72acff6"><path d="M 155.820312 0.765625 C 70.085938 0.765625 0.585938 70.265625 0.585938 156 C 0.585938 241.734375 70.085938 311.234375 155.820312 311.234375 C 241.554688 311.234375 311.054688 241.734375 311.054688 156 C 311.054688 70.265625 241.554688 0.765625 155.820312 0.765625 Z M 155.820312 0.765625 " clip-rule="nonzero"/></clipPath><clipPath id="774f1e08b5"><rect x="0" width="312" y="0" height="312"/></clipPath><clipPath id="42826f5a93"><path d="M 71.121094 44.285156 L 200.847656 44.285156 L 200.847656 151.074219 L 71.121094 151.074219 Z M 71.121094 44.285156 " clip-rule="nonzero"/></clipPath><clipPath id="b15ba01c31"><path d="M 119.042969 77.605469 L 200.789062 77.605469 L 200.789062 117.75 L 119.042969 117.75 L 131.632812 151.074219 L 71.121094 97.679688 L 131.632812 44.285156 Z M 119.042969 77.605469 " clip-rule="nonzero"/></clipPath><clipPath id="030921ecb2"><path d="M 0.121094 0.285156 L 129.800781 0.285156 L 129.800781 107.074219 L 0.121094 107.074219 Z M 0.121094 0.285156 " clip-rule="nonzero"/></clipPath><clipPath id="8b3b6e46fe"><path d="M 48.042969 33.605469 L 129.789062 33.605469 L 129.789062 73.75 L 48.042969 73.75 L 60.632812 107.074219 L 0.121094 53.679688 L 60.632812 0.285156 Z M 48.042969 33.605469 " clip-rule="nonzero"/></clipPath><clipPath id="b75052cf8b"><rect x="0" width="130" y="0" height="108"/></clipPath><clipPath id="b31a896225"><path d="M 198 77 L 271 77 L 271 156 L 198 156 Z M 198 77 " clip-rule="nonzero"/></clipPath><clipPath id="2100e368d4"><path d="M 268.621094 75.648438 L 270.523438 154.644531 L 200.550781 156.332031 L 198.648438 77.335938 Z M 268.621094 75.648438 " clip-rule="nonzero"/></clipPath><clipPath id="f0fe5d2e2e"><path d="M 198.648438 77.335938 C 217.074219 76.890625 235.296875 84.863281 248.683594 99.226562 C 262.066406 113.585938 270.019531 133.699219 270.519531 154.453125 L 234.820312 155.316406 C 234.578125 145.148438 230.679688 135.296875 224.125 128.261719 C 217.570312 121.226562 208.644531 117.324219 199.617188 117.539062 Z M 198.648438 77.335938 " clip-rule="nonzero"/></clipPath><clipPath id="b86ccf33a9"><path d="M 0.640625 0 L 72.640625 0 L 72.640625 78.359375 L 0.640625 78.359375 Z M 0.640625 0 " clip-rule="nonzero"/></clipPath><clipPath id="1375ac5fe8"><path d="M 70.621094 -1.351562 L 72.523438 77.644531 L 2.550781 79.332031 L 0.648438 0.335938 Z M 70.621094 -1.351562 " clip-rule="nonzero"/></clipPath><clipPath id="059b79f209"><path d="M 0.648438 0.335938 C 19.074219 -0.109375 37.296875 7.863281 50.683594 22.226562 C 64.066406 36.585938 72.019531 56.699219 72.519531 77.453125 L 36.820312 78.316406 C 36.578125 68.148438 32.679688 58.296875 26.125 51.261719 C 19.570312 44.226562 10.644531 40.324219 1.617188 40.539062 Z M 0.648438 0.335938 " clip-rule="nonzero"/></clipPath><clipPath id="0c7464dfdc"><rect x="0" width="73" y="0" height="79"/></clipPath><clipPath id="b87f2a6efe"><path d="M 140.792969 191.675781 L 270.519531 191.675781 L 270.519531 298.464844 L 140.792969 298.464844 Z M 140.792969 191.675781 " clip-rule="nonzero"/></clipPath><clipPath id="d5c2f4baf7"><path d="M 222.597656 265.144531 L 140.851562 265.144531 L 140.851562 225 L 222.597656 225 L 210.011719 191.675781 L 270.519531 245.070312 L 210.011719 298.464844 Z M 222.597656 265.144531 " clip-rule="nonzero"/></clipPath><clipPath id="7f2e08e867"><path d="M 0.800781 0.675781 L 130.519531 0.675781 L 130.519531 107.464844 L 0.800781 107.464844 Z M 0.800781 0.675781 " clip-rule="nonzero"/></clipPath><clipPath id="4ef69bd0ed"><path d="M 82.597656 74.144531 L 0.851562 74.144531 L 0.851562 34 L 82.597656 34 L 70.011719 0.675781 L 130.519531 54.070312 L 70.011719 107.464844 Z M 82.597656 74.144531 " clip-rule="nonzero"/></clipPath><clipPath id="15e9827a76"><rect x="0" width="131" y="0" height="108"/></clipPath><clipPath id="0fae9673a2"><path d="M 71 187 L 143 187 L 143 266 L 71 266 Z M 71 187 " clip-rule="nonzero"/></clipPath><clipPath id="fa20ff7650"><path d="M 73.019531 267.097656 L 71.117188 188.105469 L 141.089844 186.417969 L 142.992188 265.410156 Z M 73.019531 267.097656 " clip-rule="nonzero"/></clipPath><clipPath id="f1c0bf6e40"><path d="M 142.992188 265.410156 C 124.566406 265.855469 106.34375 257.882812 92.957031 243.523438 C 79.574219 229.160156 71.621094 209.046875 71.121094 188.292969 L 106.816406 187.433594 C 107.0625 197.597656 110.957031 207.453125 117.515625 214.488281 C 124.070312 221.519531 132.996094 225.425781 142.023438 225.207031 Z M 142.992188 265.410156 " clip-rule="nonzero"/></clipPath><clipPath id="f07df84212"><path d="M 0 0.28125 L 72 0.28125 L 72 79 L 0 79 Z M 0 0.28125 " clip-rule="nonzero"/></clipPath><clipPath id="2423f2c37f"><path d="M 2.019531 80.097656 L 0.117188 1.105469 L 70.089844 -0.582031 L 71.992188 78.410156 Z M 2.019531 80.097656 " clip-rule="nonzero"/></clipPath><clipPath id="4ab2788f1e"><path d="M 71.992188 78.410156 C 53.566406 78.855469 35.34375 70.882812 21.957031 56.523438 C 8.574219 42.160156 0.621094 22.046875 0.121094 1.292969 L 35.816406 0.433594 C 36.0625 10.597656 39.957031 20.453125 46.515625 27.488281 C 53.070312 34.519531 61.996094 38.425781 71.023438 38.207031 Z M 71.992188 78.410156 " clip-rule="nonzero"/></clipPath><clipPath id="a0c6cdfec2"><rect x="0" width="72" y="0" height="79"/></clipPath><clipPath id="769f644e31"><rect x="0" width="62" y="0" height="127"/></clipPath><clipPath id="2d74680649"><path d="M 347 14 L 1408.960938 14 L 1408.960938 326 L 347 326 Z M 347 14 " clip-rule="nonzero"/></clipPath><clipPath id="b48c9b7f68"><rect x="0" width="1062" y="0" height="312"/></clipPath><clipPath id="93d90d3bba"><rect x="0" width="1409" y="0" height="340"/></clipPath></defs><g transform="matrix(1, 0, 0, 1, 38, 580)"><g clip-path="url(#93d90d3bba)"><g clip-path="url(#f25781f1dc)"><g clip-path="url(#c74fcea369)"><g transform="matrix(1, 0, 0, 1, 15, 14)"><g clip-path="url(#774f1e08b5)"><g clip-path="url(#9bae4328ae)"><g clip-path="url(#f3f72acff6)"><path fill="#1a3de4" d="M 0.585938 0.765625 L 311.054688 0.765625 L 311.054688 311.234375 L 0.585938 311.234375 Z M 0.585938 0.765625 " fill-opacity="1" fill-rule="nonzero"/></g></g></g></g><path stroke-linecap="butt" transform="matrix(0.187395, 0, 0, 0.187395, 15.58546, 14.764577)" fill="none" stroke-linejoin="miter" d="M 828.384252 0.00559156 C 370.877418 0.00559156 0.00254973 370.88046 0.00254973 828.387294 C 0.00254973 1285.894129 370.877418 1656.768997 828.384252 1656.768997 C 1285.891087 1656.768997 1656.765955 1285.894129 1656.765955 828.387294 C 1656.765955 370.88046 1285.891087 0.00559156 828.384252 0.00559156 Z M 828.384252 0.00559156 " stroke="#1a3de4" stroke-width="32.017971" stroke-opacity="1" stroke-miterlimit="4"/></g></g><g clip-path="url(#42826f5a93)"><g clip-path="url(#b15ba01c31)"><g transform="matrix(1, 0, 0, 1, 71, 44)"><g clip-path="url(#b75052cf8b)"><g clip-path="url(#030921ecb2)"><g clip-path="url(#8b3b6e46fe)"><path fill="#ffffff" d="M 0.121094 0.285156 L 129.847656 0.285156 L 129.847656 107.074219 L 0.121094 107.074219 Z M 0.121094 0.285156 " fill-opacity="1" fill-rule="nonzero"/></g></g></g></g></g></g><g clip-path="url(#b31a896225)"><g clip-path="url(#2100e368d4)"><g clip-path="url(#f0fe5d2e2e)"><g transform="matrix(1, 0, 0, 1, 198, 77)"><g clip-path="url(#0c7464dfdc)"><g clip-path="url(#b86ccf33a9)"><g clip-path="url(#1375ac5fe8)"><g clip-path="url(#059b79f209)"><path fill="#ffffff" d="M 70.621094 -1.351562 L 72.519531 77.371094 L 2.542969 79.058594 L 0.648438 0.335938 Z M 70.621094 -1.351562 " fill-opacity="1" fill-rule="nonzero"/></g></g></g></g></g></g></g></g><g clip-path="url(#b87f2a6efe)"><g clip-path="url(#d5c2f4baf7)"><g transform="matrix(1, 0, 0, 1, 140, 191)"><g clip-path="url(#15e9827a76)"><g clip-path="url(#7f2e08e867)"><g clip-path="url(#4ef69bd0ed)"><path fill="#ffffff" d="M 130.519531 107.464844 L 0.792969 107.464844 L 0.792969 0.675781 L 130.519531 0.675781 Z M 130.519531 107.464844 " fill-opacity="1" fill-rule="nonzero"/></g></g></g></g></g></g><g clip-path="url(#0fae9673a2)"><g clip-path="url(#fa20ff7650)"><g clip-path="url(#f1c0bf6e40)"><g transform="matrix(1, 0, 0, 1, 71, 187)"><g clip-path="url(#a0c6cdfec2)"><g clip-path="url(#f07df84212)"><g clip-path="url(#2423f2c37f)"><g clip-path="url(#4ab2788f1e)"><path fill="#ffffff" d="M 2.019531 80.097656 L 0.121094 1.378906 L 70.097656 -0.308594 L 71.992188 78.410156 Z M 2.019531 80.097656 " fill-opacity="1" fill-rule="nonzero"/></g></g></g></g></g></g></g></g><g transform="matrix(1, 0, 0, 1, 140, 106)"><g clip-path="url(#769f644e31)"><g fill="#ffffff" fill-opacity="1"><g transform="translate(0.663465, 99.275359)"><g><path d="M 34.078125 -66 C 38.804688 -66 42.847656 -65.132812 46.203125 -63.40625 C 49.554688 -61.675781 52.09375 -59.253906 53.8125 -56.140625 C 55.53125 -53.023438 56.390625 -49.40625 56.390625 -45.28125 C 56.390625 -41.15625 55.53125 -37.539062 53.8125 -34.4375 C 52.09375 -31.34375 49.554688 -28.929688 46.203125 -27.203125 C 42.847656 -25.472656 38.804688 -24.609375 34.078125 -24.609375 L 21.625 -24.609375 L 21.625 0 L 8.578125 0 L 8.578125 -66 Z M 32.375 -34.9375 C 39.625 -34.9375 43.25 -38.382812 43.25 -45.28125 C 43.25 -52.195312 39.625 -55.65625 32.375 -55.65625 L 21.625 -55.65625 L 21.625 -34.9375 Z M 32.375 -34.9375 "/></g></g></g></g></g><g clip-path="url(#2d74680649)"><g transform="matrix(1, 0, 0, 1, 347, 14)"><g clip-path="url(#b48c9b7f68)"><g fill="#000000" fill-opacity="1"><g transform="translate(0.893662, 240.580452)"><g><path d="M 44.5625 -48.453125 L 44.5625 -77.734375 L 79.8125 -77.734375 C 82.738281 -77.734375 86.0625 -77.816406 89.78125 -77.984375 C 93.5 -78.160156 97.125 -78.765625 100.65625 -79.796875 C 104.195312 -80.835938 107.476562 -82.523438 110.5 -84.859375 C 113.53125 -87.191406 115.910156 -90.382812 117.640625 -94.4375 C 119.367188 -98.5 120.234375 -103.8125 120.234375 -110.375 C 120.234375 -116.59375 119.320312 -121.6875 117.5 -125.65625 C 115.6875 -129.632812 113.3125 -132.742188 110.375 -134.984375 C 107.4375 -137.234375 104.328125 -138.875 101.046875 -139.90625 C 97.765625 -140.945312 94.65625 -141.550781 91.71875 -141.71875 C 88.78125 -141.894531 86.363281 -141.984375 84.46875 -141.984375 L 44.5625 -141.984375 L 44.5625 -171.015625 L 86.546875 -171.015625 C 97.253906 -171.015625 106.96875 -169.757812 115.6875 -167.25 C 124.414062 -164.75 131.929688 -160.992188 138.234375 -155.984375 C 144.535156 -150.972656 149.414062 -144.582031 152.875 -136.8125 C 156.332031 -129.039062 158.0625 -119.972656 158.0625 -109.609375 C 158.0625 -96.304688 155.035156 -85.117188 148.984375 -76.046875 C 142.941406 -66.984375 134.003906 -60.117188 122.171875 -55.453125 C 110.335938 -50.785156 95.523438 -48.453125 77.734375 -48.453125 Z M 18.390625 0 L 18.390625 -171.015625 L 55.703125 -171.015625 L 55.703125 0 Z M 18.390625 0 "/></g></g></g><g fill="#000000" fill-opacity="1"><g transform="translate(166.460944, 240.580452)"><g><path d="M 16.578125 0 L 16.578125 -136.03125 L 53.890625 -136.03125 L 53.890625 0 Z M 35.234375 -155.734375 C 27.984375 -155.734375 22.414062 -157.285156 18.53125 -160.390625 C 14.644531 -163.503906 12.703125 -167.910156 12.703125 -173.609375 C 12.703125 -179.648438 14.644531 -184.222656 18.53125 -187.328125 C 22.414062 -190.441406 27.984375 -192 35.234375 -192 C 42.660156 -192 48.316406 -190.441406 52.203125 -187.328125 C 56.097656 -184.222656 58.046875 -179.648438 58.046875 -173.609375 C 58.046875 -167.910156 56.097656 -163.503906 52.203125 -160.390625 C 48.316406 -157.285156 42.660156 -155.734375 35.234375 -155.734375 Z M 35.234375 -155.734375 "/></g></g></g><g fill="#000000" fill-opacity="1"><g transform="translate(236.937163, 240.580452)"><g><path d="M 3.375 0 L 48.453125 -68.140625 L 3.625 -136.03125 L 46.375 -136.03125 L 71.25 -85.25 L 75.40625 -85.25 L 100.015625 -136.03125 L 142.765625 -136.03125 L 97.9375 -68.140625 L 143.28125 0 L 100.53125 0 L 75.40625 -51.046875 L 71.25 -51.046875 L 46.640625 0 Z M 3.375 0 "/></g></g></g><g fill="#000000" fill-opacity="1"><g transform="translate(383.589882, 240.580452)"><g><path d="M 16.578125 0 L 16.578125 -136.03125 L 53.890625 -136.03125 L 53.890625 0 Z M 35.234375 -155.734375 C 27.984375 -155.734375 22.414062 -157.285156 18.53125 -160.390625 C 14.644531 -163.503906 12.703125 -167.910156 12.703125 -173.609375 C 12.703125 -179.648438 14.644531 -184.222656 18.53125 -187.328125 C 22.414062 -190.441406 27.984375 -192 35.234375 -192 C 42.660156 -192 48.316406 -190.441406 52.203125 -187.328125 C 56.097656 -184.222656 58.046875 -179.648438 58.046875 -173.609375 C 58.046875 -167.910156 56.097656 -163.503906 52.203125 -160.390625 C 48.316406 -157.285156 42.660156 -155.734375 35.234375 -155.734375 Z M 35.234375 -155.734375 "/></g></g></g><g fill="#1a3de4" fill-opacity="1"><g transform="translate(454.069561, 240.580452)"><g><path d="M 84.203125 3.625 C 72.984375 3.625 62.925781 2.5 54.03125 0.25 C 45.132812 -1.988281 37.53125 -5.3125 31.21875 -9.71875 C 24.914062 -14.125 20.035156 -19.648438 16.578125 -26.296875 C 13.128906 -32.953125 11.144531 -40.679688 10.625 -49.484375 L 43.53125 -59.859375 C 43.875 -52.078125 45.816406 -45.59375 49.359375 -40.40625 C 52.898438 -35.226562 57.910156 -31.390625 64.390625 -28.890625 C 70.867188 -26.390625 78.164062 -25.140625 86.28125 -25.140625 C 93.882812 -25.140625 100.316406 -26.085938 105.578125 -27.984375 C 110.847656 -29.878906 114.863281 -32.425781 117.625 -35.625 C 120.394531 -38.820312 121.78125 -42.320312 121.78125 -46.125 C 121.78125 -50.613281 120.007812 -54.238281 116.46875 -57 C 112.925781 -59.769531 108.21875 -62.101562 102.34375 -64 C 96.46875 -65.894531 89.734375 -67.707031 82.140625 -69.4375 C 73.671875 -71.507812 65.375 -73.710938 57.25 -76.046875 C 49.132812 -78.378906 41.796875 -81.445312 35.234375 -85.25 C 28.671875 -89.050781 23.445312 -93.972656 19.5625 -100.015625 C 15.675781 -106.054688 13.734375 -113.65625 13.734375 -122.8125 C 13.734375 -133.351562 16.363281 -142.46875 21.625 -150.15625 C 26.894531 -157.84375 34.582031 -163.84375 44.6875 -168.15625 C 54.800781 -172.476562 67.113281 -174.640625 81.625 -174.640625 C 95.78125 -174.640625 108.039062 -172.519531 118.40625 -168.28125 C 128.769531 -164.050781 136.800781 -158.003906 142.5 -150.140625 C 148.207031 -142.285156 151.144531 -133.09375 151.3125 -122.5625 L 117.890625 -113.484375 C 117.890625 -118.835938 117.023438 -123.546875 115.296875 -127.609375 C 113.578125 -131.671875 111.160156 -135.039062 108.046875 -137.71875 C 104.941406 -140.394531 101.097656 -142.421875 96.515625 -143.796875 C 91.941406 -145.179688 86.800781 -145.875 81.09375 -145.875 C 74.363281 -145.875 68.578125 -144.96875 63.734375 -143.15625 C 58.898438 -141.34375 55.226562 -139.007812 52.71875 -136.15625 C 50.21875 -133.3125 48.96875 -129.898438 48.96875 -125.921875 C 48.96875 -121.265625 50.867188 -117.46875 54.671875 -114.53125 C 58.472656 -111.59375 63.613281 -109.128906 70.09375 -107.140625 C 76.570312 -105.148438 83.609375 -103.296875 91.203125 -101.578125 C 98.628906 -100.015625 106.1875 -98.066406 113.875 -95.734375 C 121.5625 -93.410156 128.726562 -90.390625 135.375 -86.671875 C 142.03125 -82.953125 147.382812 -77.941406 151.4375 -71.640625 C 155.5 -65.335938 157.53125 -57.347656 157.53125 -47.671875 C 157.53125 -37.304688 154.765625 -28.28125 149.234375 -20.59375 C 143.710938 -12.90625 135.507812 -6.945312 124.625 -2.71875 C 113.75 1.507812 100.273438 3.625 84.203125 3.625 Z M 84.203125 3.625 "/></g></g></g><g fill="#1a3de4" fill-opacity="1"><g transform="translate(621.450572, 240.580452)"><g><path d="M 16.578125 0 L 16.578125 -184.75 L 53.890625 -184.75 L 53.890625 -143.03125 C 53.890625 -139.570312 53.757812 -135.851562 53.5 -131.875 C 53.25 -127.90625 52.863281 -123.847656 52.34375 -119.703125 C 51.820312 -115.554688 51.257812 -111.410156 50.65625 -107.265625 C 50.050781 -103.117188 49.316406 -99.0625 48.453125 -95.09375 L 53.890625 -95.09375 C 56.304688 -104.414062 59.367188 -112.398438 63.078125 -119.046875 C 66.796875 -125.703125 71.632812 -130.800781 77.59375 -134.34375 C 83.5625 -137.882812 91.035156 -139.65625 100.015625 -139.65625 C 109.171875 -139.65625 116.6875 -137.96875 122.5625 -134.59375 C 128.4375 -131.226562 133.015625 -126.867188 136.296875 -121.515625 C 139.578125 -116.160156 141.992188 -110.332031 143.546875 -104.03125 C 145.097656 -97.726562 146.085938 -91.550781 146.515625 -85.5 C 146.953125 -79.457031 147.171875 -74.191406 147.171875 -69.703125 L 147.171875 0 L 109.859375 0 L 109.859375 -65.546875 C 109.859375 -71.941406 109.425781 -77.773438 108.5625 -83.046875 C 107.695312 -88.316406 106.316406 -92.847656 104.421875 -96.640625 C 102.523438 -100.441406 99.976562 -103.378906 96.78125 -105.453125 C 93.582031 -107.523438 89.648438 -108.5625 84.984375 -108.5625 C 78.078125 -108.5625 72.378906 -106.488281 67.890625 -102.34375 C 63.398438 -98.195312 59.988281 -92.539062 57.65625 -85.375 C 55.320312 -78.207031 54.066406 -70.046875 53.890625 -60.890625 L 53.890625 0 Z M 16.578125 0 "/></g></g></g><g fill="#1a3de4" fill-opacity="1"><g transform="translate(783.390429, 240.580452)"><g><path d="M 16.578125 0 L 16.578125 -136.03125 L 53.890625 -136.03125 L 53.890625 0 Z M 35.234375 -155.734375 C 27.984375 -155.734375 22.414062 -157.285156 18.53125 -160.390625 C 14.644531 -163.503906 12.703125 -167.910156 12.703125 -173.609375 C 12.703125 -179.648438 14.644531 -184.222656 18.53125 -187.328125 C 22.414062 -190.441406 27.984375 -192 35.234375 -192 C 42.660156 -192 48.316406 -190.441406 52.203125 -187.328125 C 56.097656 -184.222656 58.046875 -179.648438 58.046875 -173.609375 C 58.046875 -167.910156 56.097656 -163.503906 52.203125 -160.390625 C 48.316406 -157.285156 42.660156 -155.734375 35.234375 -155.734375 Z M 35.234375 -155.734375 "/></g></g></g><g fill="#1a3de4" fill-opacity="1"><g transform="translate(853.866659, 240.580452)"><g><path d="M 27.203125 0 L 27.203125 -87.0625 L 5.703125 -87.0625 L 5.703125 -114.53125 L 42.5 -112.71875 L 42.5 -117.375 C 36.101562 -118.757812 30.914062 -121.003906 26.9375 -124.109375 C 22.96875 -127.222656 20.078125 -130.9375 18.265625 -135.25 C 16.453125 -139.570312 15.546875 -144.148438 15.546875 -148.984375 C 15.546875 -156.410156 17.445312 -162.84375 21.25 -168.28125 C 25.050781 -173.726562 30.445312 -177.960938 37.4375 -180.984375 C 44.4375 -184.003906 52.515625 -185.515625 61.671875 -185.515625 C 69.617188 -185.515625 76.828125 -184.519531 83.296875 -182.53125 C 89.773438 -180.550781 95.003906 -178.09375 98.984375 -175.15625 L 96.640625 -141.21875 C 92.492188 -144.320312 87.828125 -146.78125 82.640625 -148.59375 C 77.460938 -150.40625 72.546875 -151.3125 67.890625 -151.3125 C 62.878906 -151.3125 58.644531 -149.929688 55.1875 -147.171875 C 51.738281 -144.410156 50.015625 -140.003906 50.015625 -133.953125 C 50.015625 -129.640625 50.921875 -126.273438 52.734375 -123.859375 C 54.546875 -121.441406 56.832031 -119.625 59.59375 -118.40625 C 62.351562 -117.195312 65.117188 -116.421875 67.890625 -116.078125 L 98.46875 -116.078125 L 98.46875 -87.0625 L 63.484375 -87.0625 L 63.484375 0 Z M 27.203125 0 "/></g></g></g><g fill="#1a3de4" fill-opacity="1"><g transform="translate(959.321913, 240.580452)"><g><path d="M 67.375 3.109375 C 59.945312 3.109375 53.46875 2.15625 47.9375 0.25 C 42.40625 -1.644531 37.78125 -4.617188 34.0625 -8.671875 C 30.351562 -12.734375 27.546875 -17.957031 25.640625 -24.34375 C 23.742188 -30.738281 22.796875 -38.34375 22.796875 -47.15625 L 22.796875 -106.75 L 3.375 -106.75 L 4.140625 -135.515625 L 16.578125 -135.515625 C 22.285156 -135.679688 26.519531 -136.671875 29.28125 -138.484375 C 32.039062 -140.304688 33.679688 -143.546875 34.203125 -148.203125 L 37.3125 -166.34375 L 58.5625 -166.34375 L 58.5625 -136.03125 L 92.765625 -136.03125 L 92.765625 -105.71875 L 58.5625 -105.71875 L 58.5625 -48.96875 C 58.5625 -41.882812 60.285156 -37.132812 63.734375 -34.71875 C 67.191406 -32.300781 71.425781 -31.09375 76.4375 -31.09375 C 79.539062 -31.09375 82.644531 -31.476562 85.75 -32.25 C 88.863281 -33.03125 91.546875 -34.113281 93.796875 -35.5 L 93.796875 -0.78125 C 88.441406 0.769531 83.519531 1.804688 79.03125 2.328125 C 74.539062 2.847656 70.65625 3.109375 67.375 3.109375 Z M 67.375 3.109375 "/></g></g></g></g></g></g></g></g></svg>