<svg xmlns="http://www.w3.org/2000/svg" xmlns:xlink="http://www.w3.org/1999/xlink" width="2000" zoomAndPan="magnify" viewBox="0 0 1500 1499.999933" height="2000" preserveAspectRatio="xMidYMid meet" version="1.0"><defs><g/><clipPath id="d23deab3c4"><path d="M 128.710938 0 L 1371.289062 0 L 1371.289062 1242.578125 L 128.710938 1242.578125 Z M 128.710938 0 " clip-rule="nonzero"/></clipPath><clipPath id="c4f5572813"><path d="M 750 0 C 406.871094 0 128.710938 278.160156 128.710938 621.289062 C 128.710938 964.417969 406.871094 1242.578125 750 1242.578125 C 1093.128906 1242.578125 1371.289062 964.417969 1371.289062 621.289062 C 1371.289062 278.160156 1093.128906 0 750 0 Z M 750 0 " clip-rule="nonzero"/></clipPath><clipPath id="8ab9c42cf7"><path d="M 0.710938 0 L 1243.289062 0 L 1243.289062 1242.578125 L 0.710938 1242.578125 Z M 0.710938 0 " clip-rule="nonzero"/></clipPath><clipPath id="946a097681"><path d="M 622 0 C 278.871094 0 0.710938 278.160156 0.710938 621.289062 C 0.710938 964.417969 278.871094 1242.578125 622 1242.578125 C 965.128906 1242.578125 1243.289062 964.417969 1243.289062 621.289062 C 1243.289062 278.160156 965.128906 0 622 0 Z M 622 0 " clip-rule="nonzero"/></clipPath><clipPath id="41a7e8d6bc"><rect x="0" width="1244" y="0" height="1243"/></clipPath><clipPath id="835e6ca003"><path d="M 128.710938 0 L 1371.285156 0 L 1371.285156 1242.574219 L 128.710938 1242.574219 Z M 128.710938 0 " clip-rule="nonzero"/></clipPath><clipPath id="fe35c3d06e"><path d="M 749.996094 0 C 406.871094 0 128.710938 278.160156 128.710938 621.285156 C 128.710938 964.414062 406.871094 1242.574219 749.996094 1242.574219 C 1093.125 1242.574219 1371.285156 964.414062 1371.285156 621.285156 C 1371.285156 278.160156 1093.125 0 749.996094 0 Z M 749.996094 0 " clip-rule="nonzero"/></clipPath><clipPath id="c5fe0309ef"><path d="M 350.972656 118.15625 L 870 118.15625 L 870 545.539062 L 350.972656 545.539062 Z M 350.972656 118.15625 " clip-rule="nonzero"/></clipPath><clipPath id="61f63bc637"><path d="M 542.777344 251.496094 L 869.9375 251.496094 L 869.9375 412.164062 L 542.769531 412.164062 L 593.152344 545.539062 L 350.972656 331.847656 L 593.152344 118.15625 Z M 542.777344 251.496094 " clip-rule="nonzero"/></clipPath><clipPath id="bf699ff1ba"><path d="M 0.972656 0.15625 L 520 0.15625 L 520 427.539062 L 0.972656 427.539062 Z M 0.972656 0.15625 " clip-rule="nonzero"/></clipPath><clipPath id="cc1150bba6"><path d="M 192.777344 133.496094 L 519.9375 133.496094 L 519.9375 294.164062 L 192.769531 294.164062 L 243.152344 427.539062 L 0.972656 213.847656 L 243.152344 0.15625 Z M 192.777344 133.496094 " clip-rule="nonzero"/></clipPath><clipPath id="423926a17d"><rect x="0" width="520" y="0" height="428"/></clipPath><clipPath id="b8fdf6d0cd"><path d="M 861 250 L 1150 250 L 1150 563 L 861 563 Z M 861 250 " clip-rule="nonzero"/></clipPath><clipPath id="8ff542e776"><path d="M 1141.417969 243.679688 L 1149.039062 559.832031 L 868.988281 566.582031 L 861.367188 250.429688 Z M 1141.417969 243.679688 " clip-rule="nonzero"/></clipPath><clipPath id="825a0a1ef9"><path d="M 861.367188 250.429688 C 935.125 248.652344 1008.054688 280.554688 1061.621094 338.03125 C 1115.1875 395.511719 1147.019531 476.011719 1149.019531 559.074219 L 1006.148438 562.515625 C 1005.167969 521.828125 989.578125 482.398438 963.335938 454.242188 C 937.097656 426.089844 901.375 410.460938 865.246094 411.332031 Z M 861.367188 250.429688 " clip-rule="nonzero"/></clipPath><clipPath id="3f7dec4027"><path d="M 0.359375 0 L 288.121094 0 L 288.121094 312.558594 L 0.359375 312.558594 Z M 0.359375 0 " clip-rule="nonzero"/></clipPath><clipPath id="ca943260f5"><path d="M 280.417969 -6.320312 L 288.039062 309.832031 L 7.988281 316.582031 L 0.367188 0.429688 Z M 280.417969 -6.320312 " clip-rule="nonzero"/></clipPath><clipPath id="c4ff923387"><path d="M 0.367188 0.429688 C 74.125 -1.347656 147.054688 30.554688 200.621094 88.03125 C 254.1875 145.511719 286.019531 226.011719 288.019531 309.074219 L 145.148438 312.515625 C 144.167969 271.828125 128.578125 232.398438 102.335938 204.242188 C 76.097656 176.089844 40.375 160.460938 4.246094 161.332031 Z M 0.367188 0.429688 " clip-rule="nonzero"/></clipPath><clipPath id="d317c4d478"><rect x="0" width="289" y="0" height="313"/></clipPath><clipPath id="08372f0082"><path d="M 630 708.046875 L 1149.019531 708.046875 L 1149.019531 1135.433594 L 630 1135.433594 Z M 630 708.046875 " clip-rule="nonzero"/></clipPath><clipPath id="6f09207083"><path d="M 957.210938 1002.089844 L 630.050781 1002.089844 L 630.050781 841.421875 L 957.222656 841.421875 L 906.839844 708.046875 L 1149.019531 921.738281 L 906.839844 1135.433594 Z M 957.210938 1002.089844 " clip-rule="nonzero"/></clipPath><clipPath id="100d06215b"><path d="M 0 0.046875 L 519.019531 0.046875 L 519.019531 427.433594 L 0 427.433594 Z M 0 0.046875 " clip-rule="nonzero"/></clipPath><clipPath id="6d908c07b5"><path d="M 327.210938 294.089844 L 0.0507812 294.089844 L 0.0507812 133.421875 L 327.222656 133.421875 L 276.839844 0.046875 L 519.019531 213.738281 L 276.839844 427.433594 Z M 327.210938 294.089844 " clip-rule="nonzero"/></clipPath><clipPath id="79c8b186fd"><rect x="0" width="520" y="0" height="428"/></clipPath><clipPath id="5af6559b16"><path d="M 350 691 L 639 691 L 639 1004 L 350 1004 Z M 350 691 " clip-rule="nonzero"/></clipPath><clipPath id="efc5152e6d"><path d="M 358.570312 1009.90625 L 350.953125 693.757812 L 631.003906 687.007812 L 638.621094 1003.15625 Z M 358.570312 1009.90625 " clip-rule="nonzero"/></clipPath><clipPath id="1b5677010b"><path d="M 638.621094 1003.15625 C 564.867188 1004.9375 491.9375 973.03125 438.371094 915.554688 C 384.800781 858.078125 352.972656 777.578125 350.96875 694.511719 L 493.84375 691.070312 C 494.824219 731.757812 510.414062 771.1875 536.652344 799.34375 C 562.894531 827.496094 598.617188 843.125 634.746094 842.253906 Z M 638.621094 1003.15625 " clip-rule="nonzero"/></clipPath><clipPath id="02945580f3"><path d="M 0.878906 0 L 288.640625 0 L 288.640625 313 L 0.878906 313 Z M 0.878906 0 " clip-rule="nonzero"/></clipPath><clipPath id="cedc82e75c"><path d="M 8.570312 318.90625 L 0.953125 2.757812 L 281.003906 -3.992188 L 288.621094 312.15625 Z M 8.570312 318.90625 " clip-rule="nonzero"/></clipPath><clipPath id="8769721e9a"><path d="M 288.621094 312.15625 C 214.867188 313.9375 141.9375 282.03125 88.371094 224.554688 C 34.800781 167.078125 2.972656 86.578125 0.96875 3.511719 L 143.84375 0.0703125 C 144.824219 40.757812 160.414062 80.1875 186.652344 108.34375 C 212.894531 136.496094 248.617188 152.125 284.746094 151.253906 Z M 288.621094 312.15625 " clip-rule="nonzero"/></clipPath><clipPath id="c68e5dac2e"><rect x="0" width="289" y="0" height="313"/></clipPath><clipPath id="9309c8c453"><rect x="0" width="243" y="0" height="505"/></clipPath></defs><g clip-path="url(#d23deab3c4)"><g clip-path="url(#c4f5572813)"><g transform="matrix(1, 0, 0, 1, 128, 0.000000000000112861)"><g clip-path="url(#41a7e8d6bc)"><g clip-path="url(#8ab9c42cf7)"><g clip-path="url(#946a097681)"><path fill="#1a3de4" d="M 0.710938 0 L 1243.289062 0 L 1243.289062 1242.578125 L 0.710938 1242.578125 Z M 0.710938 0 " fill-opacity="1" fill-rule="nonzero"/></g></g></g></g></g></g><g clip-path="url(#835e6ca003)"><g clip-path="url(#fe35c3d06e)"><path stroke-linecap="butt" transform="matrix(0.75, 0, 0, 0.75, 128.709925, -0.00002)" fill="none" stroke-linejoin="miter" d="M 828.38163 0.0000266667 C 370.881591 0.0000266667 0.00135045 370.880267 0.00135045 828.380306 C 0.00135045 1285.885554 370.881591 1656.765794 828.38163 1656.765794 C 1285.886878 1656.765794 1656.767118 1285.885554 1656.767118 828.380306 C 1656.767118 370.880267 1285.886878 0.0000266667 828.38163 0.0000266667 Z M 828.38163 0.0000266667 " stroke="#1a3de4" stroke-width="8" stroke-opacity="1" stroke-miterlimit="4"/></g></g><g clip-path="url(#c5fe0309ef)"><g clip-path="url(#61f63bc637)"><g transform="matrix(1, 0, 0, 1, 350, 118)"><g clip-path="url(#423926a17d)"><g clip-path="url(#bf699ff1ba)"><g clip-path="url(#cc1150bba6)"><path fill="#ffffff" d="M 0.972656 0.15625 L 520.175781 0.15625 L 520.175781 427.539062 L 0.972656 427.539062 Z M 0.972656 0.15625 " fill-opacity="1" fill-rule="nonzero"/></g></g></g></g></g></g><g clip-path="url(#b8fdf6d0cd)"><g clip-path="url(#8ff542e776)"><g clip-path="url(#825a0a1ef9)"><g transform="matrix(1, 0, 0, 1, 861, 250)"><g clip-path="url(#d317c4d478)"><g clip-path="url(#3f7dec4027)"><g clip-path="url(#ca943260f5)"><g clip-path="url(#c4ff923387)"><path fill="#ffffff" d="M 280.417969 -6.320312 L 288.011719 308.738281 L 7.960938 315.488281 L 0.367188 0.429688 Z M 280.417969 -6.320312 " fill-opacity="1" fill-rule="nonzero"/></g></g></g></g></g></g></g></g><g clip-path="url(#08372f0082)"><g clip-path="url(#6f09207083)"><g transform="matrix(1, 0, 0, 1, 630, 708)"><g clip-path="url(#79c8b186fd)"><g clip-path="url(#100d06215b)"><g clip-path="url(#6d908c07b5)"><path fill="#ffffff" d="M 519.019531 427.433594 L -0.1875 427.433594 L -0.1875 0.046875 L 519.019531 0.046875 Z M 519.019531 427.433594 " fill-opacity="1" fill-rule="nonzero"/></g></g></g></g></g></g><g clip-path="url(#5af6559b16)"><g clip-path="url(#efc5152e6d)"><g clip-path="url(#1b5677010b)"><g transform="matrix(1, 0, 0, 1, 350, 691)"><g clip-path="url(#c68e5dac2e)"><g clip-path="url(#02945580f3)"><g clip-path="url(#cedc82e75c)"><g clip-path="url(#8769721e9a)"><path fill="#ffffff" d="M 8.570312 318.90625 L 0.976562 3.851562 L 281.03125 -2.898438 L 288.621094 312.15625 Z M 8.570312 318.90625 " fill-opacity="1" fill-rule="nonzero"/></g></g></g></g></g></g></g></g><g transform="matrix(1, 0, 0, 1, 629, 368)"><g clip-path="url(#9309c8c453)"><g fill="#ffffff" fill-opacity="1"><g transform="translate(0.302948, 394.470896)"><g><path d="M 136.40625 -264.140625 C 155.3125 -264.140625 171.476562 -260.675781 184.90625 -253.75 C 198.34375 -246.820312 208.492188 -237.125 215.359375 -224.65625 C 222.222656 -212.195312 225.65625 -197.71875 225.65625 -181.21875 C 225.65625 -164.71875 222.222656 -150.265625 215.359375 -137.859375 C 208.492188 -125.453125 198.34375 -115.785156 184.90625 -108.859375 C 171.476562 -101.929688 155.3125 -98.46875 136.40625 -98.46875 L 86.546875 -98.46875 L 86.546875 0 L 34.328125 0 L 34.328125 -264.140625 Z M 129.546875 -139.84375 C 158.566406 -139.84375 173.078125 -153.632812 173.078125 -181.21875 C 173.078125 -208.914062 158.566406 -222.765625 129.546875 -222.765625 L 86.546875 -222.765625 L 86.546875 -139.84375 Z M 129.546875 -139.84375 "/></g></g></g></g></g></svg>