<svg xmlns="http://www.w3.org/2000/svg" width="1387" height="756" viewBox="0 0 1387 756">
<g>
<path d="M 633.50 619.39 L 632.16 619.77 C619.17,623.43 616.10,624.29 614.87,623.16 C614.45,622.77 614.25,622.15 613.93,621.33 C613.34,619.77 609.48,606.58 605.35,592.00 C601.23,577.42 596.98,562.93 595.92,559.78 C593.59,552.83 593.51,551.36 595.58,553.44 C597.83,555.68 598.80,554.64 599.49,549.23 C601.98,529.76 604.84,519.21 611.75,504.00 C613.63,499.88 615.23,496.27 615.31,496.00 C615.68,494.70 619.23,490.76 627.48,482.50 C632.43,477.55 636.49,473.20 636.49,472.83 C636.50,472.46 637.51,471.00 638.75,469.57 C639.99,468.15 641.00,466.53 641.00,465.97 C641.00,464.69 645.55,462.86 649.50,462.55 C654.40,462.16 663.77,457.94 663.00,456.46 C662.51,455.53 660.87,455.24 652.50,454.59 C650.30,454.42 647.94,454.22 647.25,454.14 C646.56,454.06 646.00,453.33 646.00,452.50 C646.00,451.67 645.55,451.00 645.00,451.00 C644.45,451.00 644.00,450.07 644.00,448.94 C644.00,447.81 644.45,447.16 645.00,447.50 C646.81,448.62 646.04,447.14 643.50,444.59 C640.91,442.00 639.98,435.75 642.00,434.50 C644.08,433.21 643.00,429.06 640.00,426.84 C638.35,425.62 637.00,424.17 637.00,423.61 C637.00,423.03 637.51,423.11 638.20,423.80 C639.99,425.59 641.15,425.25 640.07,423.25 C639.55,422.29 638.89,420.37 638.60,418.98 C638.31,417.59 637.19,415.51 636.10,414.34 C634.91,413.06 634.34,411.42 634.66,410.21 C635.08,408.58 634.20,407.70 630.01,405.60 C622.38,401.77 620.55,402.10 614.60,408.43 C609.06,414.32 602.67,418.99 600.11,419.02 C599.22,419.02 597.13,420.26 595.46,421.77 C592.74,424.20 591.05,426.83 583.75,440.00 C580.72,445.46 579.68,445.95 581.58,441.00 C585.74,430.18 596.46,417.06 607.95,408.69 C619.49,400.30 628.61,396.60 654.00,390.04 C666.92,386.70 679.97,383.31 683.00,382.51 C686.03,381.71 697.28,378.75 708.00,375.93 C737.15,368.28 746.04,364.17 756.58,353.43 C762.66,347.25 769.49,334.08 771.10,325.48 C772.41,318.46 771.56,304.84 769.43,298.82 C767.51,293.37 768.28,292.90 771.29,297.67 C777.76,307.92 782.62,321.00 785.02,334.61 C786.86,345.07 785.84,366.37 783.02,376.50 C777.01,398.10 766.33,412.98 742.59,432.82 C736.47,437.94 742.96,435.83 751.68,429.86 C753.98,428.29 756.69,427.00 757.71,427.00 C758.72,427.00 762.68,423.85 766.50,420.00 C774.32,412.11 777.47,411.12 780.67,415.52 C781.91,417.22 783.49,418.06 785.50,418.09 C790.15,418.16 798.29,416.88 800.50,415.74 C802.49,414.71 802.49,414.72 800.53,416.93 C797.92,419.86 787.53,425.62 778.53,429.12 C767.37,433.45 752.80,437.54 698.50,451.57 C686.95,454.56 676.94,457.21 676.26,457.47 C675.33,457.81 675.63,459.66 677.43,464.72 C678.76,468.45 681.04,475.55 682.50,480.50 C683.95,485.45 686.42,493.55 687.98,498.50 C696.67,526.00 697.92,531.62 697.95,543.00 C697.98,555.24 695.44,565.37 689.35,577.31 C685.43,585.00 683.01,588.14 674.58,596.53 C665.97,605.10 663.11,607.26 655.00,611.29 C649.78,613.89 640.10,617.53 633.50,619.39 ZM 543.51 371.75 C543.88,376.29 543.93,380.00 543.63,380.00 C543.33,380.00 542.57,378.09 541.95,375.75 C540.78,371.29 538.49,363.58 536.84,358.50 C535.74,355.12 528.37,330.16 524.44,316.50 C523.02,311.55 521.37,306.15 520.79,304.50 C520.21,302.85 519.52,295.16 519.26,287.42 C518.85,275.22 519.07,272.31 520.90,265.62 C525.47,248.97 533.72,236.61 547.90,225.18 C557.14,217.73 567.73,212.58 578.83,210.13 C584.73,208.83 583.43,209.76 575.45,212.55 C571.79,213.83 568.01,215.58 567.07,216.44 C566.12,217.30 564.86,218.00 564.27,218.00 C563.67,218.00 561.23,219.63 558.84,221.63 C556.46,223.63 552.16,226.37 549.30,227.73 C545.13,229.70 543.86,230.89 542.93,233.70 C541.55,237.90 542.64,240.57 546.92,243.45 C548.68,244.63 549.75,246.24 549.75,247.69 C549.75,250.25 552.95,255.33 558.44,261.49 C562.49,266.03 562.74,267.28 560.16,270.06 C558.66,271.67 558.35,273.48 558.49,279.77 C558.67,288.18 559.20,290.04 562.42,293.51 C563.95,295.16 565.29,295.67 567.17,295.31 C570.23,294.72 576.47,288.67 576.49,286.27 C576.51,283.71 596.07,274.19 599.19,275.23 C599.83,275.44 596.82,277.62 592.49,280.06 C588.16,282.50 583.24,285.28 581.56,286.24 C576.81,288.93 565.42,300.78 560.40,308.26 C548.56,325.88 541.84,351.14 543.51,371.75 ZM 565.53 439.94 C564.87,441.84 563.86,443.55 563.28,443.74 C562.17,444.11 561.53,442.18 552.61,411.47 L 547.09 392.44 L 548.48 379.97 C550.17,364.83 553.13,356.47 556.41,357.52 C557.56,357.89 560.97,358.30 564.00,358.42 C567.03,358.54 571.75,359.57 574.50,360.71 C577.25,361.84 581.34,363.27 583.58,363.88 C585.83,364.48 589.74,366.08 592.28,367.44 C594.82,368.79 598.50,370.19 600.45,370.56 C602.40,370.92 604.00,371.62 604.00,372.11 C604.00,372.60 605.69,373.02 607.75,373.04 C613.49,373.11 620.26,374.65 621.44,376.15 C622.21,377.12 625.08,377.47 631.77,377.40 C636.87,377.34 640.79,377.54 640.49,377.84 C640.20,378.14 636.29,379.44 631.81,380.73 C598.20,390.43 575.73,410.51 565.53,439.94 ZM 649.24 375.42 C648.93,375.74 647.37,376.00 645.78,376.00 C643.39,376.00 643.06,375.72 643.83,374.33 C644.37,373.38 644.41,371.43 643.94,369.78 C643.48,368.19 643.33,366.30 643.61,365.58 C643.89,364.86 643.23,361.62 642.16,358.38 C639.90,351.55 637.77,341.90 638.38,341.28 C638.62,341.05 639.12,342.35 639.50,344.18 C639.88,346.01 641.23,349.75 642.50,352.50 C643.77,355.25 645.49,359.98 646.33,363.00 C647.16,366.02 648.28,369.93 648.83,371.67 C649.37,373.42 649.56,375.11 649.24,375.42 ZM 773.88 424.25 C773.95,424.66 774.48,425.00 775.07,425.00 C775.71,425.00 775.86,424.11 775.44,422.75 C774.50,419.69 774.16,419.44 772.78,420.82 C771.87,421.73 771.88,422.00 772.80,422.00 C773.46,422.00 773.95,422.34 773.88,422.75 C773.82,423.16 773.82,423.84 773.88,424.25 Z" fill="rgb(4,85,140)"/>
<path d="M 841.32 355.13 C840.62,358.67 838.58,358.82 836.39,355.47 C835.32,353.84 834.14,353.14 833.03,353.49 C829.54,354.60 814.27,346.10 808.83,340.02 C805.82,336.67 804.71,336.04 802.67,336.55 C800.74,337.03 800.05,336.72 799.54,335.12 C799.18,334.00 799.36,332.19 799.94,331.10 C801.52,328.15 801.22,324.56 799.17,321.88 C798.16,320.57 797.04,318.69 796.68,317.70 C796.32,316.71 795.46,315.98 794.76,316.07 C792.09,316.42 791.43,315.91 791.21,313.33 C791.09,311.85 790.28,309.86 789.41,308.90 C787.40,306.68 788.32,303.49 791.58,301.36 C794.51,299.44 794.77,297.57 792.00,298.29 C790.34,298.72 790.00,298.32 790.00,295.91 C790.00,293.30 790.33,293.00 793.25,292.99 C798.12,292.99 803.47,291.24 805.51,288.99 C806.50,287.90 808.09,287.00 809.03,287.00 C809.98,287.00 811.31,286.34 811.98,285.53 C813.76,283.38 809.78,275.67 805.15,272.28 C803.14,270.82 800.15,268.39 798.50,266.88 C791.66,260.64 770.35,252.00 752.88,248.37 C744.62,246.66 737.26,246.45 702.00,246.89 C695.12,246.98 687.72,246.76 685.54,246.40 L 681.58 245.75 L 684.32 243.41 L 687.05 241.06 L 683.27 236.79 C681.20,234.44 678.94,231.92 678.25,231.19 C677.56,230.46 677.00,228.64 677.00,227.16 C677.00,225.68 675.88,222.81 674.50,220.79 C673.12,218.76 672.00,216.61 672.00,215.99 C672.00,215.38 671.55,215.16 671.00,215.50 C670.45,215.84 670.00,215.16 670.00,214.00 C670.00,212.84 670.45,212.16 671.00,212.50 C671.55,212.84 672.00,212.64 672.00,212.06 C672.00,211.48 671.57,211.00 671.05,211.00 C670.52,211.00 669.75,209.31 669.34,207.25 C668.93,205.19 668.51,203.16 668.42,202.75 C668.33,202.34 668.19,201.55 668.12,201.00 C668.06,200.45 666.70,200.00 665.11,200.00 C661.55,200.00 660.07,197.16 662.64,195.28 C663.60,194.57 665.09,194.00 665.96,194.00 C666.82,194.00 670.00,193.05 673.01,191.88 C683.44,187.86 690.61,186.59 709.50,185.44 C722.58,184.65 738.81,187.18 752.27,192.12 C756.80,193.78 761.64,195.49 763.02,195.93 C772.66,198.98 785.61,206.47 800.00,217.33 C820.39,232.72 836.41,254.66 845.21,279.26 C849.09,290.10 849.69,292.42 851.95,305.50 C853.42,313.99 853.22,327.46 851.52,334.50 C850.72,337.80 850.06,341.74 850.04,343.26 C850.02,344.78 849.58,346.81 849.07,347.76 C848.56,348.72 847.88,350.34 847.56,351.36 C847.13,352.73 846.30,353.10 844.44,352.74 C842.28,352.33 841.81,352.69 841.32,355.13 ZM 751.37 425.44 C749.33,427.15 747.18,428.95 745.43,430.42 C767.20,411.76 777.26,397.22 783.02,376.50 C785.84,366.37 786.86,345.07 785.02,334.61 C782.62,321.00 777.76,307.92 771.29,297.67 C768.28,292.90 767.51,293.37 769.43,298.80 C767.70,293.89 767.69,293.69 769.17,294.61 C769.82,295.01 769.59,294.26 768.67,292.94 C767.75,291.63 767.00,289.98 767.00,289.28 C767.00,287.48 769.67,287.69 771.21,289.60 C771.92,290.48 773.69,292.39 775.14,293.85 C776.58,295.31 778.10,297.62 778.51,299.00 C778.91,300.38 780.76,303.38 782.62,305.67 C784.48,307.96 786.00,310.71 786.00,311.77 C786.00,312.84 787.48,315.69 789.28,318.11 C792.29,322.14 792.50,322.91 791.90,327.50 C791.55,330.25 791.66,334.75 792.16,337.50 C793.80,346.45 791.53,366.37 787.32,380.00 C785.37,386.31 778.82,399.55 776.19,402.50 C775.21,403.60 773.40,405.08 772.16,405.79 L 769.91 407.07 L 771.48 403.79 C773.02,400.55 773.02,400.54 771.27,402.97 C764.87,411.92 757.28,420.47 751.37,425.44 ZM 554.07 339.75 C553.03,340.99 552.00,342.00 551.79,342.00 C551.57,342.00 551.78,339.41 552.26,336.25 C552.74,333.09 553.24,328.48 553.37,326.00 C553.61,321.71 556.05,315.82 559.39,311.50 C560.31,310.32 560.95,310.03 560.97,310.79 C560.99,311.84 561.26,311.84 562.40,310.79 C563.25,310.01 563.45,309.08 562.92,308.42 C562.39,307.77 562.56,306.61 563.36,305.53 C564.59,303.84 564.72,303.83 565.34,305.44 C565.86,306.79 566.69,307.01 569.25,306.48 C571.04,306.11 573.41,305.23 574.51,304.54 C578.26,302.17 596.00,292.98 596.00,293.40 C596.00,293.64 592.96,295.98 589.25,298.63 C576.43,307.74 568.68,316.23 560.15,330.50 C557.84,334.35 555.11,338.51 554.07,339.75 ZM 616.87 295.65 C615.55,297.25 614.99,297.30 613.00,295.98 C611.71,295.12 611.80,294.74 613.61,293.24 C614.76,292.28 615.99,290.71 616.32,289.75 C616.66,288.79 617.46,288.00 618.09,288.00 C619.47,288.00 618.58,293.60 616.87,295.65 ZM 806.00 287.19 C806.00,288.57 804.24,288.08 803.65,286.53 C803.34,285.72 801.91,284.77 800.48,284.41 C798.75,283.97 798.07,283.27 798.44,282.29 C798.75,281.49 799.00,280.42 799.00,279.92 C799.00,278.31 801.04,278.93 801.73,280.75 C802.10,281.71 803.21,283.37 804.20,284.44 C805.19,285.50 806.00,286.74 806.00,287.19 ZM 741.15 435.62 C743.03,435.10 747.13,432.97 751.68,429.86 C746.98,433.08 742.93,435.17 741.15,435.62 Z" fill="rgb(5,214,197)"/>
<path d="M 751.37 425.44 C757.28,420.47 764.87,411.92 771.27,402.97 C773.02,400.54 773.02,400.55 771.48,403.79 L 769.91 407.07 L 772.16 405.79 C773.40,405.08 775.21,403.60 776.19,402.50 C778.82,399.55 785.37,386.31 787.32,380.00 C791.53,366.37 793.80,346.45 792.16,337.50 C791.66,334.75 791.55,330.25 791.90,327.50 C792.50,322.91 792.29,322.14 789.28,318.11 C787.48,315.69 786.00,312.84 786.00,311.77 C786.00,310.71 784.48,307.96 782.62,305.67 C780.76,303.38 778.91,300.38 778.51,299.00 C778.10,297.62 776.58,295.31 775.14,293.85 C773.69,292.39 771.92,290.48 771.21,289.60 C769.67,287.69 767.00,287.48 767.00,289.28 C767.00,289.98 767.75,291.63 768.67,292.94 C769.59,294.26 769.82,295.01 769.17,294.61 C767.69,293.69 767.70,293.89 769.42,298.78 L 769.43 298.80 L 769.43 298.82 C770.36,301.45 771.05,305.53 771.42,309.88 C770.87,304.44 769.70,299.16 768.08,295.50 C762.96,283.94 761.11,281.16 753.50,273.51 C742.54,262.50 731.42,256.60 715.54,253.36 C701.12,250.42 693.81,251.48 647.00,263.31 C624.17,269.07 602.80,274.99 599.50,276.45 C597.92,277.15 596.28,277.95 594.63,278.81 C597.76,276.92 599.72,275.41 599.19,275.23 C596.07,274.19 576.51,283.71 576.49,286.27 C576.47,288.67 570.23,294.72 567.17,295.31 C565.29,295.67 563.95,295.16 562.42,293.51 C559.20,290.04 558.67,288.18 558.49,279.77 C558.35,273.48 558.66,271.67 560.16,270.06 C562.74,267.28 562.49,266.03 558.44,261.49 C552.95,255.33 549.75,250.25 549.75,247.69 C549.75,246.24 548.68,244.63 546.92,243.45 C542.64,240.57 541.55,237.90 542.93,233.70 C543.86,230.89 545.13,229.70 549.30,227.73 C552.16,226.37 556.46,223.63 558.84,221.63 C561.23,219.63 563.67,218.00 564.27,218.00 C564.86,218.00 566.12,217.30 567.07,216.44 C568.01,215.58 571.79,213.83 575.45,212.55 C583.43,209.76 584.73,208.83 578.83,210.13 C577.12,210.51 575.43,210.95 573.75,211.45 C575.33,210.84 576.59,210.31 577.08,210.04 C578.52,209.27 620.15,198.75 641.00,193.89 C645.67,192.81 652.88,191.05 657.00,190.00 C695.57,180.15 723.97,180.07 753.00,189.74 C792.18,202.80 824.52,229.93 841.50,264.00 C845.11,271.23 850.55,286.41 853.05,296.18 C854.60,302.26 855.06,307.49 855.12,319.75 L 855.12 319.76 C855.17,328.79 855.19,333.05 854.55,337.21 C853.97,340.94 852.86,344.58 850.75,351.50 C844.90,370.71 835.24,386.68 820.63,401.29 C811.62,410.30 801.34,417.88 790.32,423.69 C795.10,421.14 799.05,418.59 800.53,416.93 C802.49,414.72 802.49,414.71 800.50,415.74 C798.29,416.88 790.15,418.16 785.50,418.09 C783.49,418.06 781.91,417.22 780.67,415.52 C777.47,411.12 774.32,412.11 766.50,420.00 C762.68,423.85 758.72,427.00 757.71,427.00 C756.69,427.00 753.98,428.29 751.68,429.86 C747.13,432.97 743.03,435.10 741.15,435.62 C739.63,436.01 739.77,435.18 742.59,432.82 C743.56,432.02 744.51,431.21 745.43,430.42 C747.18,428.95 749.33,427.15 751.37,425.44 ZM 841.32 355.13 C841.81,352.69 842.28,352.33 844.44,352.74 C846.30,353.10 847.13,352.73 847.56,351.36 C847.88,350.34 848.56,348.72 849.07,347.76 C849.58,346.81 850.02,344.78 850.04,343.26 C850.06,341.74 850.72,337.80 851.52,334.50 C853.22,327.46 853.42,313.99 851.95,305.50 C849.69,292.42 849.09,290.10 845.21,279.26 C836.41,254.66 820.39,232.72 800.00,217.33 C785.61,206.47 772.66,198.98 763.02,195.93 C761.64,195.49 756.80,193.78 752.27,192.12 C738.81,187.18 722.58,184.65 709.50,185.44 C690.61,186.59 683.44,187.86 673.01,191.88 C670.00,193.05 666.82,194.00 665.96,194.00 C665.09,194.00 663.60,194.57 662.64,195.28 C660.07,197.16 661.55,200.00 665.11,200.00 C666.70,200.00 668.06,200.45 668.12,201.00 C668.19,201.55 668.33,202.34 668.42,202.75 C668.51,203.16 668.93,205.19 669.34,207.25 C669.75,209.31 670.52,211.00 671.05,211.00 C671.57,211.00 672.00,211.48 672.00,212.06 C672.00,212.64 671.55,212.84 671.00,212.50 C670.45,212.16 670.00,212.84 670.00,214.00 C670.00,215.16 670.45,215.84 671.00,215.50 C671.55,215.16 672.00,215.38 672.00,215.99 C672.00,216.61 673.12,218.76 674.50,220.79 C675.88,222.81 677.00,225.68 677.00,227.16 C677.00,228.64 677.56,230.46 678.25,231.19 C678.94,231.92 681.20,234.44 683.27,236.79 L 687.05 241.06 L 684.32 243.41 L 681.58 245.75 L 685.54 246.40 C687.72,246.76 695.12,246.98 702.00,246.89 C737.26,246.45 744.62,246.66 752.88,248.37 C770.35,252.00 791.66,260.64 798.50,266.88 C800.15,268.39 803.14,270.82 805.15,272.28 C809.78,275.67 813.76,283.38 811.98,285.53 C811.31,286.34 809.98,287.00 809.03,287.00 C808.09,287.00 806.50,287.90 805.51,288.99 C803.47,291.24 798.12,292.99 793.25,292.99 C790.33,293.00 790.00,293.30 790.00,295.91 C790.00,298.32 790.34,298.72 792.00,298.29 C794.77,297.57 794.51,299.44 791.58,301.36 C788.32,303.49 787.40,306.68 789.41,308.90 C790.28,309.86 791.09,311.85 791.21,313.33 C791.43,315.91 792.09,316.42 794.76,316.07 C795.46,315.98 796.32,316.71 796.68,317.70 C797.04,318.69 798.16,320.57 799.17,321.88 C801.22,324.56 801.52,328.15 799.94,331.10 C799.36,332.19 799.18,334.00 799.54,335.12 C800.05,336.72 800.74,337.03 802.67,336.55 C804.71,336.04 805.82,336.67 808.83,340.02 C814.27,346.10 829.54,354.60 833.03,353.49 C834.14,353.14 835.32,353.84 836.39,355.47 C838.58,358.82 840.62,358.67 841.32,355.13 ZM 604.13 411.67 C594.14,419.97 585.28,431.39 581.58,441.00 C579.68,445.95 580.72,445.46 583.75,440.00 C591.05,426.83 592.74,424.20 595.46,421.77 C597.13,420.26 599.22,419.02 600.11,419.02 C602.67,418.99 609.06,414.32 614.60,408.43 C620.55,402.10 622.38,401.77 630.01,405.60 C634.20,407.70 635.08,408.58 634.66,410.21 C634.34,411.42 634.91,413.06 636.10,414.34 C637.19,415.51 638.31,417.59 638.60,418.98 C638.89,420.37 639.55,422.29 640.07,423.25 C641.15,425.25 639.99,425.59 638.20,423.80 C637.51,423.11 637.00,423.03 637.00,423.61 C637.00,424.17 638.35,425.62 640.00,426.84 C643.00,429.06 644.08,433.21 642.00,434.50 C639.98,435.75 640.91,442.00 643.50,444.59 C646.04,447.14 646.81,448.62 645.00,447.50 C644.45,447.16 644.00,447.81 644.00,448.94 C644.00,450.07 644.45,451.00 645.00,451.00 C645.55,451.00 646.00,451.67 646.00,452.50 C646.00,453.33 646.56,454.06 647.25,454.14 C647.94,454.22 650.30,454.42 652.50,454.59 C660.87,455.24 662.51,455.53 663.00,456.46 C663.77,457.94 654.40,462.16 649.50,462.55 C645.55,462.86 641.00,464.69 641.00,465.97 C641.00,466.53 639.99,468.15 638.75,469.57 C637.51,471.00 636.50,472.46 636.49,472.83 C636.49,473.20 632.43,477.55 627.48,482.50 C619.23,490.76 615.68,494.70 615.31,496.00 C615.23,496.27 613.63,499.88 611.75,504.00 C604.84,519.21 601.98,529.76 599.49,549.23 C598.80,554.64 597.83,555.68 595.58,553.44 C593.51,551.36 593.59,552.83 595.92,559.78 C596.14,560.43 596.49,561.54 596.95,563.04 C595.53,558.63 594.52,555.96 593.38,553.35 C592.62,551.62 592.00,549.49 592.00,548.62 C592.00,547.75 591.37,545.34 590.61,543.27 C588.77,538.27 584.96,524.73 584.57,521.82 C584.41,520.54 583.77,518.27 583.16,516.76 C582.55,515.25 582.32,513.34 582.64,512.51 C582.95,511.68 582.69,511.00 582.05,511.00 C581.41,511.00 581.19,510.50 581.57,509.89 C581.95,509.28 581.76,508.47 581.15,508.09 C580.54,507.71 578.68,502.25 577.02,495.95 C574.59,486.70 574.01,482.47 574.01,473.91 C574.00,458.85 577.76,444.60 584.36,434.64 C586.36,431.63 588.00,428.78 588.00,428.32 C588.00,426.96 596.53,416.97 599.24,415.16 C600.10,414.59 601.99,413.24 604.13,411.67 ZM 543.51 371.75 C541.84,351.14 548.56,325.88 560.40,308.26 C565.42,300.78 576.81,288.93 581.56,286.24 C582.68,285.60 585.24,284.15 588.11,282.53 C582.84,285.79 578.02,289.38 575.10,292.38 L 570.70 296.89 L 573.60 297.48 C575.19,297.80 577.92,298.52 579.65,299.06 C581.55,299.66 582.79,299.68 585.50,298.53 C580.94,300.91 576.24,303.45 574.51,304.54 C573.41,305.23 571.04,306.11 569.25,306.48 C566.69,307.01 565.86,306.79 565.34,305.44 C564.72,303.83 564.59,303.84 563.36,305.53 C562.56,306.61 562.39,307.77 562.92,308.42 C563.45,309.08 563.25,310.01 562.40,310.79 C561.26,311.84 560.99,311.84 560.97,310.79 C560.95,310.03 560.31,310.32 559.39,311.50 C556.05,315.82 553.61,321.71 553.37,326.00 C553.24,328.48 552.74,333.09 552.26,336.25 C551.78,339.41 551.57,342.00 551.79,342.00 C552.00,342.00 553.03,340.99 554.07,339.75 C555.11,338.51 557.84,334.35 560.15,330.50 C568.68,316.23 576.43,307.74 589.25,298.63 C592.96,295.98 596.00,293.64 596.00,293.40 C596.00,293.39 595.98,293.39 595.93,293.40 C607.03,288.02 617.21,284.00 619.99,284.00 C621.94,284.00 622.22,284.75 632.12,317.00 C633.22,320.58 634.95,326.20 635.96,329.50 C636.98,332.80 638.80,338.88 640.01,343.00 C641.03,346.47 642.65,351.81 643.91,355.87 C643.43,354.62 642.94,353.44 642.50,352.50 C641.23,349.75 639.88,346.01 639.50,344.18 C639.12,342.35 638.62,341.05 638.38,341.28 C637.77,341.90 639.90,351.55 642.16,358.38 C643.23,361.62 643.89,364.86 643.61,365.58 C643.33,366.30 643.48,368.19 643.94,369.78 C644.41,371.43 644.37,373.38 643.83,374.33 C643.06,375.72 643.39,376.00 645.78,376.00 C647.01,376.00 648.22,375.85 648.85,375.63 C648.43,376.55 647.56,377.00 646.24,377.00 C643.95,377.00 629.75,381.23 620.77,384.44 C624.31,383.07 627.98,381.84 631.81,380.73 C636.29,379.44 640.20,378.14 640.49,377.84 C640.79,377.54 636.87,377.34 631.77,377.40 C625.08,377.47 622.21,377.12 621.44,376.15 C620.26,374.65 613.49,373.11 607.75,373.04 C605.69,373.02 604.00,372.60 604.00,372.11 C604.00,371.62 602.40,370.92 600.45,370.56 C598.50,370.19 594.82,368.79 592.28,367.44 C589.74,366.08 585.83,364.48 583.58,363.88 C581.34,363.27 577.25,361.84 574.50,360.71 C571.75,359.57 567.03,358.54 564.00,358.42 C560.97,358.30 557.56,357.89 556.41,357.52 C553.13,356.47 550.17,364.83 548.48,379.97 L 547.09 392.44 L 552.31 410.43 C549.12,399.85 546.74,392.42 545.88,390.45 C544.80,388.03 543.09,382.32 542.07,377.77 C541.05,373.22 539.32,366.58 538.23,363.00 C537.98,362.17 537.70,361.23 537.39,360.22 C538.97,365.19 540.90,371.77 541.95,375.75 C542.57,378.09 543.33,380.00 543.63,380.00 C543.93,380.00 543.88,376.29 543.51,371.75 ZM 616.87 295.65 C618.58,293.60 619.47,288.00 618.09,288.00 C617.46,288.00 616.66,288.79 616.32,289.75 C615.99,290.71 614.76,292.28 613.61,293.24 C611.80,294.74 611.71,295.12 613.00,295.98 C614.99,297.30 615.55,297.25 616.87,295.65 ZM 806.00 287.19 C806.00,286.74 805.19,285.50 804.20,284.44 C803.21,283.37 802.10,281.71 801.73,280.75 C801.04,278.93 799.00,278.31 799.00,279.92 C799.00,280.42 798.75,281.49 798.44,282.29 C798.07,283.27 798.75,283.97 800.48,284.41 C801.91,284.77 803.34,285.72 803.65,286.53 C804.24,288.08 806.00,288.57 806.00,287.19 ZM 773.88 424.25 C773.82,423.84 773.82,423.16 773.88,422.75 C773.95,422.34 773.46,422.00 772.80,422.00 C771.88,422.00 771.87,421.73 772.78,420.82 C774.16,419.44 774.50,419.69 775.44,422.75 C775.86,424.11 775.71,425.00 775.07,425.00 C774.48,425.00 773.95,424.66 773.88,424.25 ZM 676.13 457.53 C676.17,457.50 676.21,457.48 676.26,457.47 C676.94,457.21 686.95,454.56 698.50,451.57 C714.61,447.41 727.22,444.12 737.29,441.44 C723.74,445.11 707.77,449.30 691.00,453.56 C683.89,455.36 677.68,457.02 676.13,457.53 ZM 565.53 439.94 C568.11,432.51 571.47,425.67 575.59,419.45 C571.78,425.53 567.61,433.96 565.53,439.94 C565.03,441.40 564.52,442.43 564.02,443.02 C564.53,442.31 565.11,441.17 565.53,439.94 ZM 562.64 443.52 C562.11,443.22 561.61,442.32 561.18,440.81 C560.57,438.66 559.97,436.54 559.37,434.46 C561.26,440.67 562.07,442.85 562.64,443.52 ZM 600.51 394.79 C595.01,398.51 589.80,402.80 585.33,407.32 C589.83,402.67 594.89,398.49 600.51,394.79 ZM 771.61 320.97 C771.51,322.64 771.34,324.17 771.10,325.48 C770.52,328.60 769.25,332.31 767.58,336.08 C769.37,331.92 770.69,327.74 771.25,324.11 C771.41,323.11 771.53,322.06 771.61,320.97 ZM 562.49 215.87 C557.36,218.38 552.47,221.50 547.90,225.18 C552.98,221.08 557.36,218.25 562.49,215.87 ZM 647.59 367.51 L 648.38 370.00 C648.61,370.70 648.78,371.34 648.90,371.93 C648.88,371.85 648.85,371.76 648.83,371.67 C648.54,370.74 648.08,369.20 647.59,367.51 ZM 677.46 464.79 C678.77,468.47 681.03,475.50 682.48,480.44 C681.03,475.50 678.76,468.43 677.43,464.72 C676.40,461.82 675.86,459.97 675.76,458.86 C675.98,460.16 676.60,462.37 677.46,464.79 ZM 774.02 430.78 C775.04,430.42 776.00,430.07 776.93,429.72 C775.97,430.09 774.99,430.44 774.02,430.78 Z" fill="rgb(12,146,172)"/>
<path d="M 0.00 378.00 L 0.00 0.00 L 693.50 0.00 L 1387.00 0.00 L 1387.00 378.00 L 1387.00 756.00 L 693.50 756.00 L 0.00 756.00 L 0.00 378.00 ZM 633.50 619.39 C640.10,617.53 649.78,613.89 655.00,611.29 C663.11,607.26 665.97,605.10 674.58,596.53 C683.01,588.14 685.43,585.00 689.35,577.31 C695.44,565.37 697.98,555.24 697.95,543.00 C697.92,531.62 696.67,526.00 687.98,498.50 C686.42,493.55 683.95,485.45 682.50,480.50 C681.04,475.55 678.78,468.48 677.46,464.79 C676.15,461.10 675.39,457.89 675.79,457.66 C676.18,457.43 683.03,455.58 691.00,453.56 C729.23,443.86 763.27,434.52 774.00,430.79 C791.18,424.82 807.29,414.62 820.63,401.29 C835.24,386.68 844.90,370.71 850.75,351.50 C855.21,336.86 855.21,336.87 855.12,319.75 C855.06,307.49 854.60,302.26 853.05,296.18 C850.55,286.41 845.11,271.23 841.50,264.00 C824.52,229.93 792.18,202.80 753.00,189.74 C723.97,180.07 695.57,180.15 657.00,190.00 C652.88,191.05 645.67,192.81 641.00,193.89 C620.15,198.75 578.52,209.27 577.08,210.04 C576.21,210.51 572.90,211.82 569.73,212.94 C561.03,216.03 555.19,219.30 547.90,225.18 C533.72,236.61 525.47,248.97 520.90,265.62 C519.07,272.31 518.85,275.22 519.26,287.42 C519.52,295.16 520.21,302.85 520.79,304.50 C521.37,306.15 523.02,311.55 524.44,316.50 C527.24,326.24 535.04,352.52 538.23,363.00 C539.32,366.58 541.05,373.22 542.07,377.77 C543.09,382.32 544.80,388.03 545.88,390.45 C547.44,393.99 553.92,415.32 561.18,440.81 C562.34,444.85 563.94,444.53 565.53,439.94 C567.99,432.84 573.41,422.30 577.66,416.33 C586.25,404.29 601.67,392.24 616.28,386.16 C623.81,383.02 643.51,377.00 646.24,377.00 C649.19,377.00 649.89,374.74 648.38,370.00 C647.60,367.52 645.89,362.12 644.58,358.00 C643.27,353.88 641.22,347.12 640.01,343.00 C638.80,338.88 636.98,332.80 635.96,329.50 C634.95,326.20 633.22,320.58 632.12,317.00 C622.22,284.75 621.94,284.00 619.99,284.00 C616.73,284.00 603.32,289.52 590.15,296.28 C583.74,299.57 582.39,299.93 579.65,299.06 C577.92,298.52 575.19,297.80 573.60,297.48 L 570.70 296.89 L 575.10 292.38 C580.09,287.26 590.63,280.38 599.50,276.45 C602.80,274.99 624.17,269.07 647.00,263.31 C693.81,251.48 701.12,250.42 715.54,253.36 C731.42,256.60 742.54,262.50 753.50,273.51 C761.11,281.16 762.96,283.94 768.08,295.50 C771.18,302.50 772.61,315.36 771.25,324.11 C769.80,333.52 763.22,346.67 756.58,353.43 C746.04,364.17 737.15,368.28 708.00,375.93 C697.28,378.75 686.03,381.71 683.00,382.51 C679.97,383.31 666.92,386.70 654.00,390.04 C628.41,396.66 619.17,400.42 608.04,408.77 C604.57,411.37 600.61,414.25 599.24,415.16 C596.53,416.97 588.00,426.96 588.00,428.32 C588.00,428.78 586.36,431.63 584.36,434.64 C577.76,444.60 574.00,458.85 574.01,473.91 C574.01,482.47 574.59,486.70 577.02,495.95 C578.68,502.25 580.54,507.71 581.15,508.09 C581.76,508.47 581.95,509.28 581.57,509.89 C581.19,510.50 581.41,511.00 582.05,511.00 C582.69,511.00 582.95,511.68 582.64,512.51 C582.32,513.34 582.55,515.25 583.16,516.76 C583.77,518.27 584.41,520.54 584.57,521.82 C584.96,524.73 588.77,538.27 590.61,543.27 C591.37,545.34 592.00,547.75 592.00,548.62 C592.00,549.49 592.62,551.62 593.38,553.35 C595.98,559.29 597.92,565.55 605.38,592.00 C609.49,606.58 613.34,619.77 613.93,621.33 C615.19,624.64 614.69,624.69 633.50,619.39 Z" fill="rgb(254,254,254)"/>
</g>
</svg>